<svg xmlns="http://www.w3.org/2000/svg"  viewBox="0 0 50 50" width="50px" height="50px"><path d="M 29.509766 7.0136719 C 23.715766 7.0136719 19.001953 11.719859 19.001953 17.505859 L 19.003906 34.001953 L 23.003906 34.001953 L 23.001953 17.505859 C 23.001953 13.925859 25.920766 11.013672 29.509766 11.013672 C 33.109766 11.013672 36.039062 13.933438 36.039062 17.523438 C 36.039062 20.665437 33.995953 23.353313 31.001953 23.945312 L 31.007812 28.005859 C 36.495812 27.408859 40.039062 22.804437 40.039062 17.523438 C 40.039062 11.728437 35.315766 7.0136719 29.509766 7.0136719 z M 25.001953 18.007812 L 25.003906 34.503906 C 25.003906 38.083906 22.083141 40.996094 18.494141 40.996094 C 14.894141 40.996094 11.966797 38.076328 11.966797 34.486328 C 11.966797 31.722328 13.59125 29.106875 16.03125 28.171875 C 16.35625 28.058875 16.7 28.007953 17 28.001953 L 16.998047 23.996094 C 16.641047 24.006094 16.308625 24.021172 16.015625 24.076172 C 11.131625 25.114172 7.9667969 29.558328 7.9667969 34.486328 C 7.9667969 40.281328 12.688141 44.996094 18.494141 44.996094 C 24.288141 44.996094 29.003906 40.289906 29.003906 34.503906 L 29.001953 18.007812 L 25.001953 18.007812 z"/></svg>